<svg width="30" height="30" viewBox="0 0 30 30" fill="none" xmlns="http://www.w3.org/2000/svg">
<rect x="1" y="1" width="28" height="28" rx="14" fill="#B234B1" stroke="#B234B1" stroke-width="2"/>
<mask id="path-2-inside-1_1_113" fill="white">
<path fill-rule="evenodd" clip-rule="evenodd" d="M7.99575 6.8535L6.8535 7.99574L13.707 14.8492L6.8535 21.7027L7.99575 22.845L14.8493 15.9915L21.7027 22.845L22.845 21.7027L15.9915 14.8492L22.845 7.99575L21.7027 6.8535L14.8493 13.707L7.99575 6.8535Z"/>
</mask>
<path fill-rule="evenodd" clip-rule="evenodd" d="M7.99575 6.8535L6.8535 7.99574L13.707 14.8492L6.8535 21.7027L7.99575 22.845L14.8493 15.9915L21.7027 22.845L22.845 21.7027L15.9915 14.8492L22.845 7.99575L21.7027 6.8535L14.8493 13.707L7.99575 6.8535Z" fill="white"/>
<path d="M6.8535 7.99574L6.14639 7.28864L5.43928 7.99574L6.14639 8.70285L6.8535 7.99574ZM7.99575 6.8535L8.70285 6.14639L7.99575 5.43928L7.28864 6.14639L7.99575 6.8535ZM13.707 14.8492L14.4141 15.5564L15.1212 14.8492L14.4141 14.1421L13.707 14.8492ZM6.8535 21.7027L6.1464 20.9956L5.43929 21.7027L6.1464 22.4099L6.8535 21.7027ZM7.99575 22.845L7.28865 23.5521L7.99575 24.2592L8.70286 23.5521L7.99575 22.845ZM14.8493 15.9915L15.5564 15.2844L14.8493 14.5773L14.1421 15.2844L14.8493 15.9915ZM21.7027 22.845L20.9956 23.5521L21.7027 24.2592L22.4098 23.5521L21.7027 22.845ZM22.845 21.7027L23.5521 22.4098L24.2592 21.7027L23.5521 20.9956L22.845 21.7027ZM15.9915 14.8492L15.2844 14.1421L14.5773 14.8492L15.2844 15.5564L15.9915 14.8492ZM22.845 7.99575L23.5521 8.70286L24.2592 7.99575L23.5521 7.28865L22.845 7.99575ZM21.7027 6.8535L22.4099 6.1464L21.7027 5.43929L20.9956 6.1464L21.7027 6.8535ZM14.8493 13.707L14.1421 14.4141L14.8493 15.1212L15.5564 14.4141L14.8493 13.707ZM7.56061 8.70285L8.70285 7.5606L7.28864 6.14639L6.14639 7.28864L7.56061 8.70285ZM14.4141 14.1421L7.56061 7.28864L6.14639 8.70285L12.9999 15.5564L14.4141 14.1421ZM7.56061 22.4099L14.4141 15.5564L12.9999 14.1421L6.1464 20.9956L7.56061 22.4099ZM8.70286 22.1379L7.56061 20.9956L6.1464 22.4099L7.28865 23.5521L8.70286 22.1379ZM14.1421 15.2844L7.28865 22.1379L8.70286 23.5521L15.5564 16.6986L14.1421 15.2844ZM22.4098 22.1379L15.5564 15.2844L14.1421 16.6986L20.9956 23.5521L22.4098 22.1379ZM22.1379 20.9956L20.9956 22.1379L22.4098 23.5521L23.5521 22.4098L22.1379 20.9956ZM15.2844 15.5564L22.1379 22.4098L23.5521 20.9956L16.6986 14.1421L15.2844 15.5564ZM22.1379 7.28865L15.2844 14.1421L16.6986 15.5564L23.5521 8.70286L22.1379 7.28865ZM20.9956 7.56061L22.1379 8.70286L23.5521 7.28865L22.4099 6.1464L20.9956 7.56061ZM15.5564 14.4141L22.4099 7.56061L20.9956 6.1464L14.1421 12.9999L15.5564 14.4141ZM7.28864 7.5606L14.1421 14.4141L15.5564 12.9999L8.70285 6.14639L7.28864 7.5606Z" fill="white" mask="url(#path-2-inside-1_1_113)"/>
</svg>
